<svg version="1.1" id="Layer_1" xmlns="http://www.w3.org/2000/svg" xmlns:xlink="http://www.w3.org/1999/xlink" x="0px" y="0px"
	 width="100%" viewBox="0 0 500 500" enable-background="new 0 0 500 500" xml:space="preserve">
<path fill="#010101" opacity="1.000000" stroke="none" 
	d="
M349.000000,501.000000 
	C232.666687,501.000000 116.833389,501.000000 1.000062,501.000000 
	C1.000041,334.333405 1.000041,167.666809 1.000021,1.000152 
	C167.666550,1.000101 334.333099,1.000101 500.999756,1.000051 
	C500.999817,167.666519 500.999817,334.333038 500.999908,500.999786 
	C450.500000,501.000000 400.000000,501.000000 349.000000,501.000000 
M221.525269,285.554443 
	C223.627563,286.472595 226.071198,286.982758 227.759781,288.395447 
	C231.086029,291.178253 233.722305,294.818817 237.158234,297.427155 
	C239.993378,299.579376 243.775879,300.447327 246.762192,302.446625 
	C250.023163,304.629791 252.838211,304.617340 255.877365,302.375610 
	C260.099915,299.260956 264.357544,296.193817 268.582733,293.082703 
	C274.986603,288.367340 281.397949,283.661621 287.765259,278.897217 
	C296.381073,272.450348 304.917908,265.896484 313.613983,259.560486 
	C314.486481,258.924774 316.223328,259.475342 316.898926,259.475342 
	C318.269226,257.819397 319.341034,256.016571 320.868439,254.773682 
	C325.431793,251.060425 330.311035,247.726868 334.773071,243.902206 
	C336.388641,242.517410 338.141907,240.171524 338.160339,238.248154 
	C338.224518,231.549438 337.353058,224.847824 337.216644,218.139618 
	C337.031555,209.038284 337.089478,199.927826 337.261108,190.825394 
	C337.333893,186.965347 338.330627,183.108063 338.251038,179.263092 
	C338.119354,172.897369 337.378571,166.546173 337.091827,160.179947 
	C337.042603,159.086685 337.973816,157.949265 338.658966,156.349136 
	C332.764771,152.097778 326.816925,147.744827 320.801941,143.486679 
	C314.593842,139.091782 308.199768,134.950989 302.104736,130.407028 
	C293.573700,124.046951 285.193054,117.480904 276.857941,110.864594 
	C274.167511,108.728966 272.071899,105.794418 269.262939,103.869217 
	C264.963593,100.922569 260.151459,98.730011 255.806351,95.842148 
	C252.761459,93.818428 250.086868,93.448364 247.132431,95.676804 
	C243.955185,98.073326 240.853439,100.595268 237.507812,102.732208 
	C235.911819,103.751602 233.827484,104.006393 231.701935,104.692184 
	C231.893997,108.044601 220.663940,116.602730 218.267578,115.547943 
	C200.561325,131.071182 180.592056,142.574020 162.854294,157.088043 
	C165.991730,159.305450 166.091873,161.695206 163.813278,163.233902 
	C165.785446,171.408859 164.245621,179.192780 164.889832,186.761826 
	C164.954742,187.524521 163.777969,188.392914 163.819290,188.336533 
	C163.819290,191.306854 163.819290,193.681763 163.819290,196.087143 
	C166.054825,201.452377 164.258194,207.542770 164.865784,213.305862 
	C164.964325,214.240402 163.939163,215.293411 163.331467,216.492859 
	C166.214066,218.319870 165.830643,220.725250 162.936295,222.911758 
	C163.646622,223.434753 164.832336,223.884109 164.863861,224.403549 
	C165.008820,226.790436 164.777542,229.196976 164.781128,231.596313 
	C164.788040,236.209854 163.256409,241.548615 168.047333,244.577484 
	C173.281555,247.886551 177.507172,252.367050 182.877670,255.618179 
	C192.001556,261.141449 200.343552,267.981506 208.864807,274.464478 
	C213.155029,277.728485 217.117233,281.423676 221.525269,285.554443 
M96.138870,327.503540 
	C96.142525,338.829620 96.016609,350.157684 96.190468,361.481171 
	C96.331680,370.678619 100.839378,374.911438 109.936485,374.697784 
	C116.262321,374.549225 122.593666,374.329926 128.897781,373.829865 
	C130.100861,373.734406 131.986023,372.320770 132.172348,371.269928 
	C132.644043,368.609680 132.328873,365.809937 132.328873,362.706055 
	C125.485207,362.706055 119.506691,362.621887 113.532005,362.736725 
	C109.785301,362.808777 108.079651,361.337128 108.114891,357.439667 
	C108.227806,344.948639 108.241425,332.455017 108.107620,319.964417 
	C108.064316,315.921844 109.631584,314.217133 113.692772,314.294739 
	C121.018768,314.434723 128.349503,314.305389 135.677963,314.343170 
	C141.805206,314.374786 142.512863,315.266083 141.495499,321.570160 
	C136.737579,320.782715 131.989548,319.929993 127.220024,319.222076 
	C118.543373,317.934265 113.326691,322.098450 112.928406,330.814850 
	C112.700615,335.799957 112.700996,340.812134 112.924561,345.797485 
	C113.299599,354.160736 118.472237,358.339081 126.920685,357.247406 
	C130.877182,356.736206 134.798126,355.954529 138.743774,355.351624 
	C139.691681,355.206787 141.210754,354.873566 141.557266,355.325134 
	C145.131149,359.982788 149.579773,356.858612 153.918945,357.531250 
	C153.918945,342.236176 154.138535,327.594147 153.816391,312.964020 
	C153.677643,306.663361 149.529556,302.807037 142.590881,302.557953 
	C131.116089,302.145966 119.606262,302.108093 108.131546,302.503387 
	C100.219559,302.775940 96.564774,307.021027 96.197464,315.015106 
	C96.021790,318.838257 96.148895,322.675293 96.138870,327.503540 
M381.909973,320.518188 
	C381.909973,316.434723 381.909973,312.351288 381.909973,308.168976 
	C377.391449,308.168976 373.654846,308.168976 369.766266,308.168976 
	C369.766266,329.209747 369.766266,349.923950 369.766266,370.671265 
	C373.890991,370.671265 377.629211,370.671265 381.850159,370.671265 
	C381.850159,362.258789 381.850159,354.179871 381.850159,346.031586 
	C385.878387,346.031586 389.404663,346.031586 393.433960,346.031586 
	C393.433960,354.432587 393.433960,362.513062 393.433960,371.020294 
	C396.738159,371.020294 399.542328,370.898163 402.330719,371.055481 
	C404.986694,371.205353 405.807587,370.037781 405.800323,367.527740 
	C405.746124,348.718811 405.822815,329.909119 405.635651,311.101898 
	C405.624725,310.007019 403.793640,308.184418 402.603943,307.995422 
	C399.725372,307.538177 396.725128,307.846924 393.079895,307.846924 
	C393.079895,316.753510 393.079895,325.110413 393.079895,333.267639 
	C388.972260,333.267639 385.570679,333.267639 381.909973,333.267639 
	C381.909973,329.130554 381.909973,325.320068 381.909973,320.518188 
M345.369812,371.013062 
	C356.954681,370.903534 360.668274,367.245850 360.755676,355.809937 
	C360.788788,351.479126 360.650696,347.144104 360.797058,342.818024 
	C360.904297,339.649292 359.585815,337.917908 356.556335,337.027283 
	C351.459961,335.528961 346.436096,333.784485 341.378967,332.152130 
	C336.337738,330.524902 335.518768,328.832184 336.574524,322.883362 
	C337.378754,318.351929 340.895477,319.674255 343.665039,319.464142 
	C346.930542,319.216431 348.662994,320.690277 348.587921,324.125366 
	C348.560364,325.387299 348.861450,326.656433 349.013245,327.927246 
	C352.970032,327.927246 356.562531,327.927246 360.706360,327.927246 
	C360.706360,325.186920 360.850006,322.726624 360.680328,320.288147 
	C360.089355,311.794281 356.197479,308.097626 347.610382,307.894501 
	C343.616455,307.799988 339.606995,307.766541 335.622406,308.004059 
	C329.221497,308.385590 325.375854,311.811401 324.805542,318.228058 
	C324.291077,324.015869 324.248138,329.884979 324.588837,335.683472 
	C324.680878,337.249878 326.630768,339.400696 328.230469,340.055573 
	C333.134827,342.063232 338.282257,343.477722 343.337036,345.117157 
	C348.115326,346.666870 350.600189,353.231781 347.972656,357.673035 
	C347.539154,358.405823 346.526093,359.003296 345.664276,359.241608 
	C339.744446,360.878662 337.186920,359.068329 336.615814,353.013702 
	C336.556702,352.386841 336.280243,351.780487 336.088470,351.108063 
	C332.209564,351.108063 328.503845,351.108063 324.857208,351.108063 
	C322.756927,367.549988 329.064636,371.977386 341.418121,371.023224 
	C342.411652,370.946503 343.416290,371.013092 345.369812,371.013062 
M189.700851,342.731293 
	C186.932861,339.015411 186.832733,335.630096 189.659698,331.559540 
	C193.246445,326.394958 196.024490,320.665710 199.103638,315.153351 
	C200.275055,313.056274 201.314392,310.885406 202.490433,308.599457 
	C191.448395,306.398102 190.506897,306.792511 185.550095,315.332703 
	C183.631699,318.637970 181.756668,321.969086 179.796051,325.249084 
	C178.696686,327.088226 177.462738,328.846924 176.289398,330.641846 
	C175.925751,330.499115 175.562103,330.356415 175.198456,330.213684 
	C175.198456,322.942902 175.198456,315.672119 175.198456,307.865326 
	C172.747528,307.865326 170.758911,308.061432 168.822952,307.825562 
	C164.436661,307.291077 162.766525,308.605286 162.869400,313.466827 
	C163.207565,329.446716 162.996582,345.438202 162.996597,361.425232 
	C162.996597,371.745117 162.996948,371.749695 173.331680,370.934662 
	C173.805252,370.897308 174.262070,370.647644 174.753448,370.488159 
	C176.753174,363.214233 172.558868,354.859009 178.864136,348.021149 
	C182.301743,354.733887 185.552139,361.259857 189.005630,367.676514 
	C189.711426,368.987915 191.082596,370.678680 192.314163,370.829437 
	C195.811371,371.257538 199.395020,370.979523 204.034576,370.979523 
	C198.986526,361.066193 194.492981,352.241791 189.700851,342.731293 
M215.333618,346.669067 
	C213.428925,354.612488 211.524216,362.555939 209.497498,371.008209 
	C212.243637,371.008209 214.099869,370.747253 215.853897,371.059784 
	C220.179642,371.830627 221.773056,369.812622 222.284973,365.815643 
	C222.610519,363.273926 223.657257,360.824554 224.360748,358.402191 
	C227.031662,358.402191 229.193100,358.402252 231.354538,358.402161 
	C240.637268,358.401764 240.549759,358.428467 243.287888,367.399078 
	C243.712936,368.791534 245.209579,370.609406 246.467392,370.841980 
	C249.276733,371.361450 252.248169,371.004364 255.503738,371.004364 
	C255.085266,368.770233 254.883209,367.304077 254.531769,365.874664 
	C250.649933,350.085510 246.738785,334.303528 242.848267,318.516510 
	C240.141434,307.532623 240.151535,307.659760 228.682571,307.774414 
	C225.706406,307.804138 224.660126,308.924500 224.032654,311.566040 
	C221.309952,323.028290 218.439362,334.455383 215.333618,346.669067 
M274.909180,352.436981 
	C274.909180,337.698578 274.909180,322.960144 274.909180,308.195740 
	C270.331421,308.195740 266.593903,308.195740 262.831848,308.195740 
	C262.831848,329.270905 262.831848,349.988831 262.831848,370.735260 
	C273.376831,370.735260 283.470490,370.735260 293.680908,370.735260 
	C293.680908,366.752075 293.680908,363.059296 293.680908,358.876648 
	C287.196472,358.876648 281.122375,358.876648 274.909180,358.876648 
	C274.909180,356.727173 274.909180,355.072510 274.909180,352.436981 
M304.377380,307.983765 
	C303.957550,309.470215 303.179291,310.954956 303.172394,312.443329 
	C303.088287,330.551300 303.109650,348.659760 303.134613,366.768066 
	C303.136353,368.042328 303.382111,369.316254 303.559326,371.023041 
	C305.650635,371.023041 307.442230,371.022491 309.233795,371.023102 
	C315.685333,371.025330 315.688538,371.025513 315.689209,364.576447 
	C315.690918,347.464905 315.701538,330.353302 315.671265,313.241821 
	C315.668182,311.510986 315.411377,309.780579 315.257568,307.866455 
	C311.509827,307.866455 308.368805,307.866455 304.377380,307.983765 
z"/>
<path fill="#3BB22F" opacity="1.000000" stroke="none" 
	d="
M221.376526,285.239136 
	C217.117233,281.423676 213.155029,277.728485 208.864807,274.464478 
	C200.343552,267.981506 192.001556,261.141449 182.877670,255.618179 
	C177.507172,252.367050 173.281555,247.886551 168.047333,244.577484 
	C163.256409,241.548615 164.788040,236.209854 164.781128,231.596313 
	C164.777542,229.196976 165.008820,226.790436 164.863861,224.403549 
	C164.832336,223.884109 163.646622,223.434753 162.936295,222.911758 
	C165.830643,220.725250 166.214066,218.319870 163.331467,216.492859 
	C163.939163,215.293411 164.964325,214.240402 164.865784,213.305862 
	C164.258194,207.542770 166.054825,201.452377 163.819290,196.087143 
	C163.819290,193.681763 163.819290,191.306854 163.819290,188.336533 
	C163.777969,188.392914 164.954742,187.524521 164.889832,186.761826 
	C164.245621,179.192780 165.785446,171.408859 163.813278,163.233902 
	C166.091873,161.695206 165.991730,159.305450 162.854294,157.088043 
	C180.592056,142.574020 200.561325,131.071182 218.267578,115.547943 
	C220.663940,116.602730 231.893997,108.044601 231.701935,104.692184 
	C233.827484,104.006393 235.911819,103.751602 237.507812,102.732208 
	C240.853439,100.595268 243.955185,98.073326 247.132431,95.676804 
	C250.086868,93.448364 252.761459,93.818428 255.806351,95.842148 
	C260.151459,98.730011 264.963593,100.922569 269.262939,103.869217 
	C272.071899,105.794418 274.167511,108.728966 276.857941,110.864594 
	C285.193054,117.480904 293.573700,124.046951 302.104736,130.407028 
	C308.199768,134.950989 314.593842,139.091782 320.801941,143.486679 
	C326.816925,147.744827 332.764771,152.097778 338.658966,156.349136 
	C337.973816,157.949265 337.042603,159.086685 337.091827,160.179947 
	C337.378571,166.546173 338.119354,172.897369 338.251038,179.263092 
	C338.330627,183.108063 337.333893,186.965347 337.261108,190.825394 
	C337.089478,199.927826 337.031555,209.038284 337.216644,218.139618 
	C337.353058,224.847824 338.224518,231.549438 338.160339,238.248154 
	C338.141907,240.171524 336.388641,242.517410 334.773071,243.902206 
	C330.311035,247.726868 325.431793,251.060425 320.868439,254.773682 
	C319.341034,256.016571 318.269226,257.819397 316.898926,259.475342 
	C316.223328,259.475342 314.486481,258.924774 313.613983,259.560486 
	C304.917908,265.896484 296.381073,272.450348 287.765259,278.897217 
	C281.397949,283.661621 274.986603,288.367340 268.582733,293.082703 
	C264.357544,296.193817 260.099915,299.260956 255.877365,302.375610 
	C252.838211,304.617340 250.023163,304.629791 246.762192,302.446625 
	C243.775879,300.447327 239.993378,299.579376 237.158234,297.427155 
	C233.722305,294.818817 231.086029,291.178253 227.759781,288.395447 
	C226.071198,286.982758 223.627563,286.472595 221.376526,285.239136 
M326.098633,225.135300 
	C326.136353,222.432526 326.174042,219.729752 326.663727,216.972290 
	C326.895386,216.813858 327.127014,216.655411 327.358673,216.496979 
	C326.976349,216.322327 326.594055,216.147659 326.101501,215.225754 
	C326.137421,214.473267 326.173370,213.720779 326.613770,212.571289 
	C326.478943,211.724838 326.344086,210.878387 326.099609,209.235107 
	C326.136993,208.165695 326.174377,207.096283 326.663239,205.971207 
	C326.894653,205.812500 327.126068,205.653793 327.357483,205.495087 
	C326.975555,205.321030 326.593628,205.146957 326.101349,204.225662 
	C326.137329,203.473190 326.173279,202.720703 326.613098,201.569321 
	C326.478516,200.723450 326.343903,199.877579 326.101166,198.274582 
	C326.137695,197.512650 326.174225,196.750732 326.474426,195.794434 
	C326.653534,195.465317 326.565613,195.204269 326.099457,194.185257 
	C326.136902,192.799164 326.174347,191.413071 326.663727,189.972305 
	C326.895386,189.813858 327.127045,189.655426 327.358673,189.496994 
	C326.976349,189.322327 326.594055,189.147659 326.101471,188.225754 
	C326.137421,187.473282 326.173370,186.720795 326.615051,185.571121 
	C326.479797,184.724686 326.344543,183.878235 326.101196,182.283432 
	C326.138031,181.530273 326.174866,180.777115 326.756042,179.915161 
	C326.574554,179.268768 326.393066,178.622360 326.101379,177.227966 
	C326.137329,176.474716 326.173279,175.721466 326.613159,174.569183 
	C326.478088,173.723267 326.343018,172.877335 326.096405,171.364410 
	C325.972107,170.730682 325.847778,170.096939 325.700928,169.348236 
	C317.653503,174.895691 309.671295,180.185059 301.918762,185.791931 
	C290.039612,194.383270 278.649414,203.697983 266.406860,211.721802 
	C259.030945,216.556015 256.329071,221.892487 256.715515,230.753098 
	C257.510651,248.984283 256.954620,267.274384 256.954620,286.253052 
	C258.979675,285.458191 260.641479,285.137238 261.912964,284.254211 
	C271.665924,277.480804 281.443481,270.735046 291.016205,263.711945 
	C301.139618,256.284882 311.152039,248.694962 320.970062,240.871384 
	C323.358002,238.968536 327.201538,237.437271 326.660919,232.967346 
	C326.892181,232.809326 327.123474,232.651306 327.354767,232.493301 
	C326.973755,232.319901 326.592743,232.146484 326.101471,231.225815 
	C326.137421,230.473312 326.173370,229.720795 326.613770,228.571274 
	C326.478943,227.724823 326.344086,226.878372 326.098633,225.135300 
M175.912231,234.750412 
	C178.716248,237.518814 181.225861,240.692627 184.377960,242.981689 
	C194.971146,250.674515 205.888504,257.920349 216.499557,265.589386 
	C226.123962,272.545349 235.510147,279.830933 245.268906,287.320312 
	C245.429672,286.877502 245.590439,286.434662 245.855743,285.061707 
	C245.869461,266.070099 245.549408,247.069260 246.074936,228.091843 
	C246.263092,221.297531 244.126938,217.308151 238.533249,213.531326 
	C223.160263,203.151581 208.251053,192.084839 193.162003,181.284790 
	C187.506363,177.236725 181.860886,173.174423 175.660370,168.883133 
	C175.035889,168.680496 174.411407,168.477844 173.786926,168.275208 
	C173.698883,168.510132 173.610840,168.745056 173.522812,168.979980 
	C174.293213,169.322479 175.063614,169.664978 175.905228,170.682861 
	C175.865433,171.132599 175.825653,171.582352 175.288544,172.292389 
	C174.760696,172.829391 174.232849,173.366379 173.705017,173.903381 
	C174.398621,174.272766 175.092224,174.642151 175.904984,175.891113 
	C175.865250,178.256927 175.825516,180.622742 175.283554,183.065308 
	C175.451599,184.028809 175.619644,184.992310 175.904907,186.842957 
	C175.865204,189.224899 175.825500,191.606842 175.203369,194.065659 
	C174.628204,194.448853 174.053055,194.832047 172.821152,195.652817 
	C174.346924,195.839081 175.066299,195.926910 175.902374,196.764633 
	C175.863815,197.520340 175.825256,198.276062 175.289246,199.292099 
	C174.761139,199.829071 174.233047,200.366058 173.704956,200.903030 
	C174.398590,201.272537 175.092224,201.642029 175.904984,202.891113 
	C175.864853,205.256927 175.824722,207.622757 175.282745,210.065277 
	C175.449875,211.028427 175.617004,211.991592 175.902359,213.842148 
	C175.863388,216.225174 175.824417,218.608215 175.242081,221.092850 
	C175.423294,221.731537 175.604492,222.370224 175.902298,223.749466 
	C175.863449,224.495834 175.824615,225.242203 175.283676,226.065460 
	C175.451675,227.028900 175.619675,227.992355 175.894318,229.649185 
	C175.858765,230.114151 175.823196,230.579132 175.381256,231.391266 
	C175.516602,232.264648 175.651947,233.138016 175.912231,234.750412 
M309.118958,148.430420 
	C306.220856,146.575806 303.204071,144.881195 300.447174,142.836212 
	C292.559998,136.985687 284.806824,130.954727 276.938812,125.077957 
	C274.365417,123.155876 271.521210,121.597137 268.940613,119.683807 
	C263.467255,115.625793 258.139771,111.368332 252.597824,107.409149 
	C251.910233,106.917923 250.038574,107.385727 249.129532,108.010971 
	C240.134811,114.197578 231.156372,120.413010 222.312149,126.812126 
	C209.376511,136.171509 196.548157,145.679367 183.696381,155.154205 
	C182.585220,155.973404 181.640350,157.018158 180.343796,158.210510 
	C204.312515,175.391296 227.736557,192.181671 251.249146,209.035507 
	C273.361389,193.024628 295.268127,177.220825 317.031494,161.221909 
	C318.056152,160.468643 318.675995,157.238937 317.990601,156.433197 
	C315.586853,153.607376 312.529022,151.337967 309.118958,148.430420 
z"/>
<path fill="#FAFAFA" opacity="1.000000" stroke="none" 
	d="
M96.138870,327.004791 
	C96.148895,322.675293 96.021790,318.838257 96.197464,315.015106 
	C96.564774,307.021027 100.219559,302.775940 108.131546,302.503387 
	C119.606262,302.108093 131.116089,302.145966 142.590881,302.557953 
	C149.529556,302.807037 153.677643,306.663361 153.816391,312.964020 
	C154.138535,327.594147 153.918945,342.236176 153.918945,357.531250 
	C149.579773,356.858612 145.131149,359.982788 141.557266,355.325134 
	C141.210754,354.873566 139.691681,355.206787 138.743774,355.351624 
	C134.798126,355.954529 130.877182,356.736206 126.920685,357.247406 
	C118.472237,358.339081 113.299599,354.160736 112.924561,345.797485 
	C112.700996,340.812134 112.700615,335.799957 112.928406,330.814850 
	C113.326691,322.098450 118.543373,317.934265 127.220024,319.222076 
	C131.989548,319.929993 136.737579,320.782715 141.495499,321.570160 
	C142.512863,315.266083 141.805206,314.374786 135.677963,314.343170 
	C128.349503,314.305389 121.018768,314.434723 113.692772,314.294739 
	C109.631584,314.217133 108.064316,315.921844 108.107620,319.964417 
	C108.241425,332.455017 108.227806,344.948639 108.114891,357.439667 
	C108.079651,361.337128 109.785301,362.808777 113.532005,362.736725 
	C119.506691,362.621887 125.485207,362.706055 132.328873,362.706055 
	C132.328873,365.809937 132.644043,368.609680 132.172348,371.269928 
	C131.986023,372.320770 130.100861,373.734406 128.897781,373.829865 
	C122.593666,374.329926 116.262321,374.549225 109.936485,374.697784 
	C100.839378,374.911438 96.331680,370.678619 96.190468,361.481171 
	C96.016609,350.157684 96.142525,338.829620 96.138870,327.004791 
M123.955696,334.030762 
	C123.932106,335.856445 124.039192,337.695099 123.859230,339.505219 
	C123.406784,344.056458 125.074486,346.046478 129.852524,345.160706 
	C133.731842,344.441528 137.679474,344.090881 141.795441,343.550751 
	C141.795441,339.883972 141.795441,336.484283 141.795441,333.095978 
	C137.460938,332.465027 133.373062,331.622040 129.250870,331.390717 
	C127.575523,331.296661 125.825531,332.532776 123.955696,334.030762 
z"/>
<path fill="#F4F4F4" opacity="1.000000" stroke="none" 
	d="
M381.909973,321.013916 
	C381.909973,325.320068 381.909973,329.130554 381.909973,333.267639 
	C385.570679,333.267639 388.972260,333.267639 393.079895,333.267639 
	C393.079895,325.110413 393.079895,316.753510 393.079895,307.846924 
	C396.725128,307.846924 399.725372,307.538177 402.603943,307.995422 
	C403.793640,308.184418 405.624725,310.007019 405.635651,311.101898 
	C405.822815,329.909119 405.746124,348.718811 405.800323,367.527740 
	C405.807587,370.037781 404.986694,371.205353 402.330719,371.055481 
	C399.542328,370.898163 396.738159,371.020294 393.433960,371.020294 
	C393.433960,362.513062 393.433960,354.432587 393.433960,346.031586 
	C389.404663,346.031586 385.878387,346.031586 381.850159,346.031586 
	C381.850159,354.179871 381.850159,362.258789 381.850159,370.671265 
	C377.629211,370.671265 373.890991,370.671265 369.766266,370.671265 
	C369.766266,349.923950 369.766266,329.209747 369.766266,308.168976 
	C373.654846,308.168976 377.391449,308.168976 381.909973,308.168976 
	C381.909973,312.351288 381.909973,316.434723 381.909973,321.013916 
z"/>
<path fill="#F8F8F8" opacity="1.000000" stroke="none" 
	d="
M344.892792,371.013062 
	C343.416290,371.013092 342.411652,370.946503 341.418121,371.023224 
	C329.064636,371.977386 322.756927,367.549988 324.857208,351.108063 
	C328.503845,351.108063 332.209564,351.108063 336.088470,351.108063 
	C336.280243,351.780487 336.556702,352.386841 336.615814,353.013702 
	C337.186920,359.068329 339.744446,360.878662 345.664276,359.241608 
	C346.526093,359.003296 347.539154,358.405823 347.972656,357.673035 
	C350.600189,353.231781 348.115326,346.666870 343.337036,345.117157 
	C338.282257,343.477722 333.134827,342.063232 328.230469,340.055573 
	C326.630768,339.400696 324.680878,337.249878 324.588837,335.683472 
	C324.248138,329.884979 324.291077,324.015869 324.805542,318.228058 
	C325.375854,311.811401 329.221497,308.385590 335.622406,308.004059 
	C339.606995,307.766541 343.616455,307.799988 347.610382,307.894501 
	C356.197479,308.097626 360.089355,311.794281 360.680328,320.288147 
	C360.850006,322.726624 360.706360,325.186920 360.706360,327.927246 
	C356.562531,327.927246 352.970032,327.927246 349.013245,327.927246 
	C348.861450,326.656433 348.560364,325.387299 348.587921,324.125366 
	C348.662994,320.690277 346.930542,319.216431 343.665039,319.464142 
	C340.895477,319.674255 337.378754,318.351929 336.574524,322.883362 
	C335.518768,328.832184 336.337738,330.524902 341.378967,332.152130 
	C346.436096,333.784485 351.459961,335.528961 356.556335,337.027283 
	C359.585815,337.917908 360.904297,339.649292 360.797058,342.818024 
	C360.650696,347.144104 360.788788,351.479126 360.755676,355.809937 
	C360.668274,367.245850 356.954681,370.903534 344.892792,371.013062 
z"/>
<path fill="#FCFCFC" opacity="1.000000" stroke="none" 
	d="
M189.850143,343.074341 
	C194.492981,352.241791 198.986526,361.066193 204.034576,370.979523 
	C199.395020,370.979523 195.811371,371.257538 192.314163,370.829437 
	C191.082596,370.678680 189.711426,368.987915 189.005630,367.676514 
	C185.552139,361.259857 182.301743,354.733887 178.864136,348.021149 
	C172.558868,354.859009 176.753174,363.214233 174.753448,370.488159 
	C174.262070,370.647644 173.805252,370.897308 173.331680,370.934662 
	C162.996948,371.749695 162.996597,371.745117 162.996597,361.425232 
	C162.996582,345.438202 163.207565,329.446716 162.869400,313.466827 
	C162.766525,308.605286 164.436661,307.291077 168.822952,307.825562 
	C170.758911,308.061432 172.747528,307.865326 175.198456,307.865326 
	C175.198456,315.672119 175.198456,322.942902 175.198456,330.213684 
	C175.562103,330.356415 175.925751,330.499115 176.289398,330.641846 
	C177.462738,328.846924 178.696686,327.088226 179.796051,325.249084 
	C181.756668,321.969086 183.631699,318.637970 185.550095,315.332703 
	C190.506897,306.792511 191.448395,306.398102 202.490433,308.599457 
	C201.314392,310.885406 200.275055,313.056274 199.103638,315.153351 
	C196.024490,320.665710 193.246445,326.394958 189.659698,331.559540 
	C186.832733,335.630096 186.932861,339.015411 189.850143,343.074341 
z"/>
<path fill="#FAFAFA" opacity="1.000000" stroke="none" 
	d="
M215.478073,346.282166 
	C218.439362,334.455383 221.309952,323.028290 224.032654,311.566040 
	C224.660126,308.924500 225.706406,307.804138 228.682571,307.774414 
	C240.151535,307.659760 240.141434,307.532623 242.848267,318.516510 
	C246.738785,334.303528 250.649933,350.085510 254.531769,365.874664 
	C254.883209,367.304077 255.085266,368.770233 255.503738,371.004364 
	C252.248169,371.004364 249.276733,371.361450 246.467392,370.841980 
	C245.209579,370.609406 243.712936,368.791534 243.287888,367.399078 
	C240.549759,358.428467 240.637268,358.401764 231.354538,358.402161 
	C229.193100,358.402252 227.031662,358.402191 224.360748,358.402191 
	C223.657257,360.824554 222.610519,363.273926 222.284973,365.815643 
	C221.773056,369.812622 220.179642,371.830627 215.853897,371.059784 
	C214.099869,370.747253 212.243637,371.008209 209.497498,371.008209 
	C211.524216,362.555939 213.428925,354.612488 215.478073,346.282166 
M228.051834,342.588165 
	C227.749252,344.282715 227.446671,345.977264 227.138672,347.702148 
	C230.983154,347.702148 234.409164,347.702148 238.151718,347.702148 
	C236.316193,339.865112 234.551041,332.328522 232.538345,323.734955 
	C230.924683,330.479187 229.574814,336.120880 228.051834,342.588165 
z"/>
<path fill="#F5F5F5" opacity="1.000000" stroke="none" 
	d="
M274.909180,352.927429 
	C274.909180,355.072510 274.909180,356.727173 274.909180,358.876648 
	C281.122375,358.876648 287.196472,358.876648 293.680908,358.876648 
	C293.680908,363.059296 293.680908,366.752075 293.680908,370.735260 
	C283.470490,370.735260 273.376831,370.735260 262.831848,370.735260 
	C262.831848,349.988831 262.831848,329.270905 262.831848,308.195740 
	C266.593903,308.195740 270.331421,308.195740 274.909180,308.195740 
	C274.909180,322.960144 274.909180,337.698578 274.909180,352.927429 
z"/>
<path fill="#F3F3F3" opacity="1.000000" stroke="none" 
	d="
M304.802582,307.925110 
	C308.368805,307.866455 311.509827,307.866455 315.257568,307.866455 
	C315.411377,309.780579 315.668182,311.510986 315.671265,313.241821 
	C315.701538,330.353302 315.690918,347.464905 315.689209,364.576447 
	C315.688538,371.025513 315.685333,371.025330 309.233795,371.023102 
	C307.442230,371.022491 305.650635,371.023041 303.559326,371.023041 
	C303.382111,369.316254 303.136353,368.042328 303.134613,366.768066 
	C303.109650,348.659760 303.088287,330.551300 303.172394,312.443329 
	C303.179291,310.954956 303.957550,309.470215 304.802582,307.925110 
z"/>
<path fill="#080707" opacity="1.000000" stroke="none" 
	d="
M309.419250,148.643860 
	C312.529022,151.337967 315.586853,153.607376 317.990601,156.433197 
	C318.675995,157.238937 318.056152,160.468643 317.031494,161.221909 
	C295.268127,177.220825 273.361389,193.024628 251.249146,209.035507 
	C227.736557,192.181671 204.312515,175.391296 180.343796,158.210510 
	C181.640350,157.018158 182.585220,155.973404 183.696381,155.154205 
	C196.548157,145.679367 209.376511,136.171509 222.312149,126.812126 
	C231.156372,120.413010 240.134811,114.197578 249.129532,108.010971 
	C250.038574,107.385727 251.910233,106.917923 252.597824,107.409149 
	C258.139771,111.368332 263.467255,115.625793 268.940613,119.683807 
	C271.521210,121.597137 274.365417,123.155876 276.938812,125.077957 
	C284.806824,130.954727 292.559998,136.985687 300.447174,142.836212 
	C303.204071,144.881195 306.220856,146.575806 309.419250,148.643860 
z"/>
<path fill="#0A0808" opacity="1.000000" stroke="none" 
	d="
M175.786713,199.031769 
	C175.825256,198.276062 175.863815,197.520340 175.908020,196.053986 
	C175.871048,194.891830 175.828430,194.440308 175.785797,193.988785 
	C175.825500,191.606842 175.865204,189.224899 175.913864,186.031662 
	C175.877151,184.476425 175.831467,183.732498 175.785782,182.988556 
	C175.825516,180.622742 175.865250,178.256927 175.913147,175.081711 
	C175.876160,173.525574 175.831009,172.778824 175.785858,172.032089 
	C175.825653,171.582352 175.865433,171.132599 175.983063,170.131058 
	C176.060913,169.579254 176.210785,169.118607 176.210785,169.118607 
	C181.860886,173.174423 187.506363,177.236725 193.162003,181.284790 
	C208.251053,192.084839 223.160263,203.151581 238.533249,213.531326 
	C244.126938,217.308151 246.263092,221.297531 246.074936,228.091843 
	C245.549408,247.069260 245.869461,266.070099 245.630981,285.649048 
	C245.197418,286.440643 245.062469,286.685547 245.001373,286.971191 
	C235.510147,279.830933 226.123962,272.545349 216.499557,265.589386 
	C205.888504,257.920349 194.971146,250.674515 184.377960,242.981689 
	C181.225861,240.692627 178.716248,237.518814 175.917068,234.012726 
	C175.877151,232.531387 175.832397,231.787750 175.787659,231.044098 
	C175.823196,230.579132 175.858765,230.114151 175.908569,228.934769 
	C175.877151,227.476425 175.831467,226.732498 175.785782,225.988571 
	C175.824615,225.242203 175.863449,224.495834 175.907990,223.044922 
	C175.870926,221.890656 175.828186,221.440948 175.785446,220.991241 
	C175.824417,218.608215 175.863388,216.225174 175.911377,213.030945 
	C175.875137,211.476028 175.829865,210.732300 175.784592,209.988571 
	C175.824722,207.622757 175.864853,205.256927 175.913162,202.081696 
	C175.876465,200.525436 175.831573,199.778610 175.786713,199.031769 
z"/>
<path fill="#0A0809" opacity="1.000000" stroke="none" 
	d="
M326.211792,190.026978 
	C326.174347,191.413071 326.136902,192.799164 326.107056,194.842682 
	C326.114655,195.500107 326.210724,195.988800 326.210724,195.988800 
	C326.174225,196.750732 326.137695,197.512650 326.087158,199.017197 
	C326.118530,200.495956 326.163879,201.232086 326.209229,201.968231 
	C326.173279,202.720703 326.137329,203.473190 326.108337,204.862854 
	C326.147522,205.675659 326.179657,205.851257 326.211731,206.026871 
	C326.174377,207.096283 326.136993,208.165695 326.086365,209.997543 
	C326.118530,211.496078 326.163910,212.232193 326.209290,212.968292 
	C326.173370,213.720779 326.137421,214.473267 326.108459,215.862946 
	C326.147522,216.675766 326.179626,216.851364 326.211761,217.026978 
	C326.174042,219.729752 326.136353,222.432526 326.085876,225.947632 
	C326.118530,227.496078 326.163910,228.232193 326.209290,228.968292 
	C326.173370,229.720795 326.137421,230.473312 326.108398,231.862915 
	C326.147491,232.675537 326.179596,232.851074 326.211731,233.026611 
	C327.201538,237.437271 323.358002,238.968536 320.970062,240.871384 
	C311.152039,248.694962 301.139618,256.284882 291.016205,263.711945 
	C281.443481,270.735046 271.665924,277.480804 261.912964,284.254211 
	C260.641479,285.137238 258.979675,285.458191 256.954620,286.253052 
	C256.954620,267.274384 257.510651,248.984283 256.715515,230.753098 
	C256.329071,221.892487 259.030945,216.556015 266.406860,211.721802 
	C278.649414,203.697983 290.039612,194.383270 301.918762,185.791931 
	C309.671295,180.185059 317.653503,174.895691 325.700928,169.348236 
	C325.847778,170.096939 325.972107,170.730682 326.084351,172.062012 
	C326.117920,173.495819 326.163574,174.232025 326.209229,174.968216 
	C326.173279,175.721466 326.137329,176.474716 326.091919,177.941345 
	C326.125519,179.111145 326.168579,179.567551 326.211670,180.023956 
	C326.174866,180.777115 326.138031,181.530273 326.087158,183.021667 
	C326.118530,184.496033 326.163940,185.232178 326.209320,185.968323 
	C326.173370,186.720795 326.137421,187.473282 326.108429,188.862946 
	C326.147522,189.675766 326.179626,189.851364 326.211792,190.026978 
z"/>
<path fill="#37AA2E" opacity="1.000000" stroke="none" 
	d="
M175.537201,172.162231 
	C175.831009,172.778824 175.876160,173.525574 175.853561,174.641922 
	C175.092224,174.642151 174.398621,174.272766 173.705017,173.903381 
	C174.232849,173.366379 174.760696,172.829391 175.537201,172.162231 
z"/>
<path fill="#37AA2E" opacity="1.000000" stroke="none" 
	d="
M175.537964,199.161926 
	C175.831573,199.778610 175.876465,200.525436 175.853592,201.641907 
	C175.092224,201.642029 174.398590,201.272537 173.704956,200.903030 
	C174.233047,200.366058 174.761139,199.829071 175.537964,199.161926 
z"/>
<path fill="#37AA2E" opacity="1.000000" stroke="none" 
	d="
M175.494598,194.027222 
	C175.828430,194.440308 175.871048,194.891830 175.849670,195.679047 
	C175.066299,195.926910 174.346924,195.839081 172.821152,195.652817 
	C174.053055,194.832047 174.628204,194.448853 175.494598,194.027222 
z"/>
<path fill="#37AA2E" opacity="1.000000" stroke="none" 
	d="
M175.935577,169.000870 
	C176.210785,169.118607 176.060913,169.579254 175.947464,169.793365 
	C175.063614,169.664978 174.293213,169.322479 173.522812,168.979980 
	C173.610840,168.745056 173.698883,168.510132 173.786926,168.275208 
	C174.411407,168.477844 175.035889,168.680496 175.935577,169.000870 
z"/>
<path fill="#37AA2E" opacity="1.000000" stroke="none" 
	d="
M175.584457,231.217682 
	C175.832397,231.787750 175.877151,232.531387 175.854614,233.643219 
	C175.651947,233.138016 175.516602,232.264648 175.584457,231.217682 
z"/>
<path fill="#37AA2E" opacity="1.000000" stroke="none" 
	d="
M175.534729,226.027008 
	C175.831467,226.732498 175.877151,227.476425 175.855255,228.588074 
	C175.619675,227.992355 175.451675,227.028900 175.534729,226.027008 
z"/>
<path fill="#37AA2E" opacity="1.000000" stroke="none" 
	d="
M175.513763,221.042053 
	C175.828186,221.440948 175.870926,221.890656 175.849686,222.674637 
	C175.604492,222.370224 175.423294,221.731537 175.513763,221.042053 
z"/>
<path fill="#37AA2E" opacity="1.000000" stroke="none" 
	d="
M175.533661,210.026917 
	C175.829865,210.732300 175.875137,211.476028 175.852280,212.587250 
	C175.617004,211.991592 175.449875,211.028427 175.533661,210.026917 
z"/>
<path fill="#37AA2E" opacity="1.000000" stroke="none" 
	d="
M175.534668,183.026932 
	C175.831467,183.732498 175.877151,184.476425 175.855255,185.588089 
	C175.619644,184.992310 175.451599,184.028809 175.534668,183.026932 
z"/>
<path fill="#31A925" opacity="1.000000" stroke="none" 
	d="
M326.483856,179.969559 
	C326.168579,179.567551 326.125519,179.111145 326.147003,178.315353 
	C326.393066,178.622360 326.574554,179.268768 326.483856,179.969559 
z"/>
<path fill="#31A925" opacity="1.000000" stroke="none" 
	d="
M326.411530,228.769775 
	C326.163910,228.232193 326.118530,227.496078 326.141174,226.395950 
	C326.344086,226.878372 326.478943,227.724823 326.411530,228.769775 
z"/>
<path fill="#31A925" opacity="1.000000" stroke="none" 
	d="
M326.411530,212.769791 
	C326.163910,212.232193 326.118530,211.496078 326.141174,210.395950 
	C326.344086,210.878387 326.478943,211.724838 326.411530,212.769791 
z"/>
<path fill="#31A925" opacity="1.000000" stroke="none" 
	d="
M326.411194,201.768768 
	C326.163879,201.232086 326.118530,200.495956 326.141235,199.395752 
	C326.343903,199.877579 326.478516,200.723450 326.411194,201.768768 
z"/>
<path fill="#31A925" opacity="1.000000" stroke="none" 
	d="
M326.412170,185.769714 
	C326.163940,185.232178 326.118530,184.496033 326.141205,183.395844 
	C326.344543,183.878235 326.479797,184.724686 326.412170,185.769714 
z"/>
<path fill="#31A925" opacity="1.000000" stroke="none" 
	d="
M326.411194,174.768707 
	C326.163574,174.232025 326.117920,173.495819 326.140106,172.395523 
	C326.343018,172.877335 326.478088,173.723267 326.411194,174.768707 
z"/>
<path fill="#31A925" opacity="1.000000" stroke="none" 
	d="
M326.437744,216.999634 
	C326.179626,216.851364 326.147522,216.675766 326.163574,216.236572 
	C326.594055,216.147659 326.976349,216.322327 327.358673,216.496979 
	C327.127014,216.655411 326.895386,216.813858 326.437744,216.999634 
z"/>
<path fill="#31A925" opacity="1.000000" stroke="none" 
	d="
M326.436340,232.996979 
	C326.179596,232.851074 326.147491,232.675537 326.163544,232.236542 
	C326.592743,232.146484 326.973755,232.319901 327.354767,232.493286 
	C327.123474,232.651306 326.892181,232.809326 326.436340,232.996979 
z"/>
<path fill="#112B10" opacity="1.000000" stroke="none" 
	d="
M245.135132,287.145752 
	C245.062469,286.685547 245.197418,286.440643 245.578705,286.114136 
	C245.590439,286.434662 245.429672,286.877502 245.135132,287.145752 
z"/>
<path fill="#31A925" opacity="1.000000" stroke="none" 
	d="
M326.437500,205.999039 
	C326.179657,205.851257 326.147522,205.675659 326.163513,205.236481 
	C326.593628,205.146957 326.975555,205.321030 327.357483,205.495087 
	C327.126068,205.653793 326.894653,205.812500 326.437500,205.999039 
z"/>
<path fill="#31A925" opacity="1.000000" stroke="none" 
	d="
M326.437744,189.999634 
	C326.179626,189.851364 326.147522,189.675766 326.163574,189.236572 
	C326.594055,189.147659 326.976349,189.322327 327.358673,189.496994 
	C327.127045,189.655426 326.895386,189.813858 326.437744,189.999634 
z"/>
<path fill="#31A925" opacity="1.000000" stroke="none" 
	d="
M326.342590,195.891617 
	C326.210724,195.988800 326.114655,195.500107 326.162659,195.255676 
	C326.565613,195.204269 326.653534,195.465317 326.342590,195.891617 
z"/>
<path fill="#050505" opacity="1.000000" stroke="none" 
	d="
M124.032593,333.597229 
	C125.825531,332.532776 127.575523,331.296661 129.250870,331.390717 
	C133.373062,331.622040 137.460938,332.465027 141.795441,333.095978 
	C141.795441,336.484283 141.795441,339.883972 141.795441,343.550751 
	C137.679474,344.090881 133.731842,344.441528 129.852524,345.160706 
	C125.074486,346.046478 123.406784,344.056458 123.859230,339.505219 
	C124.039192,337.695099 123.932106,335.856445 124.032593,333.597229 
z"/>
<path fill="#0D0D0D" opacity="1.000000" stroke="none" 
	d="
M228.138397,342.175385 
	C229.574814,336.120880 230.924683,330.479187 232.538345,323.734955 
	C234.551041,332.328522 236.316193,339.865112 238.151718,347.702148 
	C234.409164,347.702148 230.983154,347.702148 227.138672,347.702148 
	C227.446671,345.977264 227.749252,344.282715 228.138397,342.175385 
z"/>
</svg>