<svg version="1.1" id="Layer_1" xmlns="http://www.w3.org/2000/svg" xmlns:xlink="http://www.w3.org/1999/xlink" x="0px" y="0px"
	 width="100%" viewBox="0 0 60 60" enable-background="new 0 0 60 60" xml:space="preserve">
<path fill="#FFFFFF" opacity="1.000000" stroke="none" 
	d="
M39.000290,61.000000 
	C26.000229,61.000000 13.500231,61.000000 1.000175,61.000000 
	C1.000117,41.000084 1.000117,21.000166 1.000059,1.000186 
	C20.999912,1.000124 40.999825,1.000124 60.999802,1.000062 
	C60.999870,20.999907 60.999870,40.999813 60.999935,60.999863 
	C53.833450,61.000000 46.666901,61.000000 39.000290,61.000000 
M5.997051,41.495766 
	C5.997051,46.263382 5.997051,51.030998 5.997051,55.716805 
	C22.975410,55.716805 39.380150,55.716805 55.716736,55.716805 
	C55.716736,39.024391 55.716736,22.619699 55.716736,6.283329 
	C39.024311,6.283329 22.619570,6.283329 5.997051,6.283329 
	C5.997051,17.877737 5.997051,29.187229 5.997051,41.495766 
z"/>
<path fill="#020101" opacity="1.000000" stroke="none" 
	d="
M5.997051,40.996243 
	C5.997051,29.187229 5.997051,17.877737 5.997051,6.283329 
	C22.619570,6.283329 39.024311,6.283329 55.716736,6.283329 
	C55.716736,22.619699 55.716736,39.024391 55.716736,55.716805 
	C39.380150,55.716805 22.975410,55.716805 5.997051,55.716805 
	C5.997051,51.030998 5.997051,46.263382 5.997051,40.996243 
M35.090061,25.596449 
	C35.390797,26.064949 35.691532,26.533449 35.288452,27.098999 
	C35.314201,28.004452 35.339947,28.909904 35.365692,29.815357 
	C37.244690,28.878441 39.123692,27.941525 40.885963,26.288160 
	C39.611301,25.801220 38.336643,25.314281 36.929363,24.264256 
	C36.291134,24.519312 35.652901,24.774368 35.090061,25.596449 
M26.207218,26.349360 
	C25.850224,25.924839 25.493231,25.500317 24.339266,25.025820 
	C23.256481,25.791016 22.173698,26.556213 21.090916,27.321411 
	C22.393450,27.544024 23.695984,27.766636 25.102367,28.653591 
	C26.040667,29.078272 26.978964,29.502954 27.917263,29.927635 
	C28.041542,29.652554 28.165821,29.377472 28.290102,29.102390 
	C27.511187,28.360100 26.732273,27.617811 26.207218,26.349360 
M31.894917,15.690908 
	C31.799038,15.642427 31.703157,15.593946 31.607279,15.545465 
	C31.732555,15.701428 31.857830,15.857391 31.984591,16.839180 
	C32.693108,18.506752 33.401627,20.174324 34.110146,21.841896 
	C35.441368,21.158136 36.772591,20.474377 38.862930,19.400709 
	C35.737495,17.841330 33.875336,16.912237 31.894917,15.690908 
M20.994732,37.577145 
	C19.452305,36.943752 17.909880,36.310356 16.038351,35.541817 
	C16.038351,38.745895 16.038351,40.786373 16.038351,43.441669 
	C18.867887,42.379456 21.582453,42.183910 20.994732,37.577145 
M27.955959,32.719620 
	C28.854855,33.719166 29.762047,35.540985 30.650763,35.532017 
	C32.106030,35.517326 33.549274,34.312092 34.997589,33.609005 
	C34.787395,33.081829 34.577202,32.554653 34.367004,32.027477 
	C32.429775,32.114834 30.492544,32.202190 27.955959,32.719620 
M26.688572,17.993330 
	C25.944927,18.542662 25.201283,19.091993 24.457638,19.641325 
	C25.350845,20.406830 26.161114,21.601759 27.164730,21.795593 
	C27.905088,21.938585 28.897778,20.775087 29.778038,20.193712 
	C29.006216,19.460245 28.234394,18.726780 26.688572,17.993330 
M41.966499,38.347157 
	C40.739738,38.049877 39.512974,37.752598 38.286209,37.455318 
	C38.299946,38.185879 38.313683,38.916435 38.327423,39.646996 
	C39.380150,39.445347 40.432873,39.243702 41.966499,38.347157 
z"/>
<path fill="#FEFEFE" opacity="1.000000" stroke="none" 
	d="
M20.996700,38.029804 
	C21.582453,42.183910 18.867887,42.379456 16.038351,43.441669 
	C16.038351,40.786373 16.038351,38.745895 16.038351,35.541817 
	C17.909880,36.310356 19.452305,36.943752 20.996700,38.029804 
z"/>
<path fill="#0C0A0B" opacity="1.000000" stroke="none" 
	d="
M28.255636,32.504581 
	C30.492544,32.202190 32.429775,32.114834 34.367004,32.027477 
	C34.577202,32.554653 34.787395,33.081829 34.997589,33.609005 
	C33.549274,34.312092 32.106030,35.517326 30.650763,35.532017 
	C29.762047,35.540985 28.854855,33.719166 28.255636,32.504581 
z"/>
<path fill="#0D0B0B" opacity="1.000000" stroke="none" 
	d="
M32.013172,15.983145 
	C33.875336,16.912237 35.737495,17.841330 38.862930,19.400709 
	C36.772591,20.474377 35.441368,21.158136 34.110146,21.841896 
	C33.401627,20.174324 32.693108,18.506752 31.992207,16.419544 
	C31.999823,15.999908 32.013172,15.983145 32.013172,15.983145 
z"/>
<path fill="#0D0B0B" opacity="1.000000" stroke="none" 
	d="
M27.075573,17.993320 
	C28.234394,18.726780 29.006216,19.460245 29.778038,20.193712 
	C28.897778,20.775087 27.905088,21.938585 27.164730,21.795593 
	C26.161114,21.601759 25.350845,20.406830 24.457638,19.641325 
	C25.201283,19.091993 25.944927,18.542662 27.075573,17.993320 
z"/>
<path fill="#0C0A0B" opacity="1.000000" stroke="none" 
	d="
M41.002689,27.004604 
	C39.123692,27.941525 37.244690,28.878441 35.365692,29.815357 
	C35.339947,28.909904 35.314201,28.004452 35.889709,27.045368 
	C36.490963,26.991735 36.988289,26.955444 37.191284,27.164618 
	C38.597080,27.250729 39.799885,27.127666 41.002689,27.004604 
z"/>
<path fill="#131117" opacity="1.000000" stroke="none" 
	d="
M24.998518,27.989248 
	C23.695984,27.766636 22.393450,27.544024 21.090916,27.321411 
	C22.173698,26.556213 23.256481,25.791016 24.710802,25.359581 
	C25.062162,26.106108 25.041986,26.518871 25.015163,27.196022 
	C25.005184,27.636686 25.001850,27.812967 24.998518,27.989248 
z"/>
<path fill="#F6F6F6" opacity="1.000000" stroke="none" 
	d="
M41.726051,38.694603 
	C40.432873,39.243702 39.380150,39.445347 38.327423,39.646996 
	C38.313683,38.916435 38.299946,38.185879 38.286209,37.455318 
	C39.512974,37.752598 40.739738,38.049877 41.726051,38.694603 
z"/>
<path fill="#1C1515" opacity="1.000000" stroke="none" 
	d="
M40.944328,26.646381 
	C39.799885,27.127666 38.597080,27.250729 37.200226,26.861698 
	C36.969410,25.948233 36.932640,25.546860 36.933548,25.063940 
	C36.971226,24.982393 37.061981,24.827341 37.061981,24.827341 
	C38.336643,25.314281 39.611301,25.801220 40.944328,26.646381 
z"/>
<path fill="#0A0707" opacity="1.000000" stroke="none" 
	d="
M25.050442,28.321419 
	C25.001850,27.812967 25.005184,27.636686 25.249458,27.206352 
	C25.490400,26.952297 25.953360,26.875521 25.953358,26.875523 
	C26.732273,27.617811 27.511187,28.360100 28.290102,29.102390 
	C28.165821,29.377472 28.041542,29.652554 27.917263,29.927635 
	C26.978964,29.502954 26.040667,29.078272 25.050442,28.321419 
z"/>
<path fill="#0D0B0B" opacity="1.000000" stroke="none" 
	d="
M35.014671,25.029423 
	C35.652901,24.774368 36.291134,24.519312 36.995674,24.545799 
	C37.061981,24.827341 36.971226,24.982393 36.623970,25.001736 
	C35.856037,25.023861 35.435352,25.026642 35.014671,25.029423 
z"/>
<path fill="#705064" opacity="1.000000" stroke="none" 
	d="
M26.080288,26.612440 
	C25.953360,26.875521 25.490400,26.952297 25.256105,26.941967 
	C25.041986,26.518871 25.062162,26.106108 25.109287,25.384569 
	C25.493231,25.500317 25.850224,25.924839 26.080288,26.612440 
z"/>
<path fill="#855962" opacity="1.000000" stroke="none" 
	d="
M35.052368,25.312935 
	C35.435352,25.026642 35.856037,25.023861 36.586296,25.083282 
	C36.932640,25.546860 36.969410,25.948233 36.997234,26.652525 
	C36.988289,26.955444 36.490963,26.991735 36.241615,26.996841 
	C35.691532,26.533449 35.390797,26.064949 35.052368,25.312935 
z"/>
<path fill="#0D0B0B" opacity="1.000000" stroke="none" 
	d="
M31.991465,16.006632 
	C31.857830,15.857391 31.732555,15.701428 31.607279,15.545465 
	C31.703157,15.593946 31.799038,15.642427 31.954044,15.837027 
	C32.013172,15.983145 31.999823,15.999908 31.991465,16.006632 
z"/>
</svg>